<svg width="40" height="41" viewBox="0 0 40 41" fill="none" xmlns="http://www.w3.org/2000/svg">
<path fill-rule="evenodd" clip-rule="evenodd" d="M20 40.5C31.0457 40.5 40 31.5457 40 20.5C40 9.4543 31.0457 0.5 20 0.5C8.9543 0.5 0 9.4543 0 20.5C0 31.5457 8.9543 40.5 20 40.5Z" fill="#4267B2"/>
<path fill-rule="evenodd" clip-rule="evenodd" d="M24.6234 11.5037L22.2249 11.5C19.5302 11.5 17.7888 13.2387 17.7888 15.9298V17.9723H15.3771C15.1688 17.9723 15 18.1367 15 18.3395V21.2988C15 21.5016 15.1689 21.6658 15.3771 21.6658H17.7888V29.133C17.7888 29.3358 17.9575 29.5 18.1659 29.5H21.3124C21.5208 29.5 21.6896 29.3356 21.6896 29.133V21.6658H24.5093C24.7177 21.6658 24.8865 21.5016 24.8865 21.2988L24.8876 18.3395C24.8876 18.2421 24.8478 18.1489 24.7772 18.0799C24.7066 18.011 24.6103 17.9723 24.5103 17.9723H21.6896V16.2409C21.6896 15.4087 21.8933 14.9862 23.0073 14.9862L24.623 14.9857C24.8312 14.9857 25 14.8212 25 14.6186V11.8708C25 11.6683 24.8314 11.5041 24.6234 11.5037Z" fill="white"/>
</svg>
