<svg width="40" height="41" viewBox="0 0 40 41" fill="none" xmlns="http://www.w3.org/2000/svg">
<path fill-rule="evenodd" clip-rule="evenodd" d="M20 40.5C31.0457 40.5 40 31.5457 40 20.5C40 9.4543 31.0457 0.5 20 0.5C8.9543 0.5 0 9.4543 0 20.5C0 31.5457 8.9543 40.5 20 40.5Z" fill="#262626"/>
<path fill-rule="evenodd" clip-rule="evenodd" d="M20 12C22.3085 12 22.5979 12.0098 23.5045 12.0512C24.4093 12.0924 25.0272 12.2361 25.5678 12.4463C26.1268 12.6634 26.6008 12.9541 27.0734 13.4266C27.5459 13.8992 27.8366 14.3732 28.0538 14.9322C28.2639 15.4728 28.4076 16.0907 28.4488 16.9955C28.4902 17.9021 28.5 18.1915 28.5 20.5C28.5 22.8085 28.4902 23.0979 28.4488 24.0045C28.4076 24.9093 28.2639 25.5272 28.0538 26.0678C27.8366 26.6268 27.5459 27.1008 27.0734 27.5734C26.6008 28.0459 26.1268 28.3366 25.5678 28.5538C25.0272 28.7639 24.4093 28.9076 23.5045 28.9488C22.5979 28.9902 22.3085 29 20 29C17.6915 29 17.4021 28.9902 16.4955 28.9488C15.5907 28.9076 14.9728 28.7639 14.4322 28.5538C13.8732 28.3366 13.3992 28.0459 12.9266 27.5734C12.4541 27.1008 12.1634 26.6268 11.9463 26.0678C11.7361 25.5272 11.5924 24.9093 11.5512 24.0045C11.5098 23.0979 11.5 22.8085 11.5 20.5C11.5 18.1915 11.5098 17.9021 11.5512 16.9955C11.5924 16.0907 11.7361 15.4728 11.9463 14.9322C12.1634 14.3732 12.4541 13.8992 12.9266 13.4266C13.3992 12.9541 13.8732 12.6634 14.4322 12.4463C14.9728 12.2361 15.5907 12.0924 16.4955 12.0512C17.4021 12.0098 17.6915 12 20 12ZM19.9973 23.3298C21.5616 23.3298 22.8298 22.0616 22.8298 20.4973C22.8298 18.933 21.5616 17.6649 19.9973 17.6649C18.433 17.6649 17.1649 18.933 17.1649 20.4973C17.1649 22.0616 18.433 23.3298 19.9973 23.3298ZM19.9973 16.1338C22.4072 16.1338 24.3608 18.0874 24.3608 20.4973C24.3608 22.9072 22.4072 24.8608 19.9973 24.8608C17.5874 24.8608 15.6338 22.9072 15.6338 20.4973C15.6338 18.0874 17.5874 16.1338 19.9973 16.1338ZM25.8556 15.8722C25.8556 16.446 25.3904 16.9111 24.8166 16.9111C24.2429 16.9111 23.7778 16.446 23.7778 15.8722C23.7778 15.2985 24.2429 14.8333 24.8166 14.8333C25.3904 14.8333 25.8556 15.2985 25.8556 15.8722Z" fill="white"/>
</svg>
