<svg width="50" height="51" viewBox="0 0 50 51" fill="none" xmlns="http://www.w3.org/2000/svg">
<path fill-rule="evenodd" clip-rule="evenodd" d="M25 50.5C38.8071 50.5 50 39.3071 50 25.5C50 11.6929 38.8071 0.5 25 0.5C11.1929 0.5 0 11.6929 0 25.5C0 39.3071 11.1929 50.5 25 50.5Z" fill="#4592FF"/>
<mask id="mask0_1_134" style="mask-type:luminance" maskUnits="userSpaceOnUse" x="0" y="0" width="50" height="51">
<path fill-rule="evenodd" clip-rule="evenodd" d="M25 50.5C38.8071 50.5 50 39.3071 50 25.5C50 11.6929 38.8071 0.5 25 0.5C11.1929 0.5 0 11.6929 0 25.5C0 39.3071 11.1929 50.5 25 50.5Z" fill="white"/>
</mask>
<g mask="url(#mask0_1_134)">
<path d="M1.92576 27.6313C2.56932 27.6313 3.14276 27.5246 3.64606 27.3112C4.15761 27.0978 4.58666 26.7982 4.93319 26.4124C5.27973 26.0267 5.54375 25.5588 5.72527 25.0089C5.91504 24.459 6.00993 23.8434 6.00993 23.1621V12.5H9.33914V23.1621C9.33914 24.2209 9.16587 25.2018 8.81934 26.1046C8.48105 26.9993 7.99013 27.775 7.34656 28.4316C6.71125 29.08 5.93567 29.5889 5.01982 29.9583C4.10398 30.3194 3.07263 30.5 1.92576 30.5C0.770641 30.5 -0.26484 30.3194 -1.18068 29.9583C-2.09653 29.5889 -2.87623 29.08 -3.5198 28.4316C-4.15511 27.775 -4.64604 26.9993 -4.99257 26.1046C-5.33086 25.2018 -5.5 24.2209 -5.5 23.1621V12.5H-2.17078V23.1498C-2.17078 23.8311 -2.08003 24.4466 -1.89851 24.9966C-1.70874 25.5465 -1.44059 26.0185 -1.09405 26.4124C-0.739264 26.7982 -0.31022 27.0978 0.193082 27.3112C0.704634 27.5246 1.28219 27.6313 1.92576 27.6313Z" fill="white"/>
<path d="M28.1805 12.5V30.303H26.4725C26.2085 30.303 25.9857 30.262 25.8042 30.1799C25.6309 30.0896 25.4618 29.9419 25.2968 29.7367L15.9527 17.868C16.0022 18.4097 16.027 18.9104 16.027 19.37V30.303H13.0938V12.5H14.8388C14.9791 12.5 15.0987 12.5082 15.1978 12.5246C15.305 12.5328 15.3958 12.5575 15.47 12.5985C15.5525 12.6313 15.6309 12.6847 15.7052 12.7586C15.7794 12.8242 15.8619 12.9145 15.9527 13.0294L25.3339 24.9473C25.3092 24.6601 25.2885 24.3769 25.272 24.0978C25.2555 23.8187 25.2473 23.5602 25.2473 23.3222V12.5H28.1805Z" fill="white"/>
<path d="M47.5 12.5L40.2723 30.303H37.2648L30.0371 12.5H32.7104C32.9991 12.5 33.2343 12.5698 33.4158 12.7093C33.5973 12.8488 33.7335 13.0294 33.8242 13.251L38.0445 24.1101C38.1848 24.4631 38.3168 24.8529 38.4406 25.2798C38.5726 25.6984 38.6964 26.1375 38.8119 26.5971C38.9109 26.1375 39.0181 25.6984 39.1336 25.2798C39.2492 24.8529 39.377 24.4631 39.5173 24.1101L43.7129 13.251C43.7789 13.0622 43.9068 12.8899 44.0965 12.7339C44.2945 12.578 44.5338 12.5 44.8144 12.5H47.5Z" fill="white"/>
</g>
</svg>
