<svg width="40" height="41" viewBox="0 0 40 41" fill="none" xmlns="http://www.w3.org/2000/svg">
<path fill-rule="evenodd" clip-rule="evenodd" d="M20 40.5C31.0457 40.5 40 31.5457 40 20.5C40 9.4543 31.0457 0.5 20 0.5C8.9543 0.5 0 9.4543 0 20.5C0 31.5457 8.9543 40.5 20 40.5Z" fill="#1DA1F2"/>
<path fill-rule="evenodd" clip-rule="evenodd" d="M28.979 14.8628C28.9532 14.8321 28.9106 14.8217 28.8743 14.8385C28.3361 15.0794 27.77 15.2527 27.1869 15.3551C27.8059 14.885 28.2672 14.234 28.5037 13.4876C28.5151 13.4519 28.5033 13.4128 28.4744 13.3895C28.4453 13.3663 28.4049 13.3633 28.373 13.3825C27.6758 13.7999 26.9206 14.0941 26.1276 14.2573C25.4248 13.5211 24.4435 13.1 23.4278 13.1C21.3623 13.1 19.6821 14.796 19.6821 16.8808C19.6821 17.133 19.7063 17.3827 19.7542 17.6252C16.8934 17.4469 14.2184 16.0605 12.3995 13.8086C12.3809 13.7855 12.3527 13.7727 12.3232 13.7757C12.2939 13.7779 12.2677 13.7947 12.2529 13.8202C11.9211 14.3948 11.7458 15.0523 11.7458 15.7211C11.7458 16.8803 12.2675 17.9641 13.1559 18.6792C12.6985 18.6238 12.2518 18.4784 11.849 18.2527C11.8219 18.2373 11.7882 18.2375 11.7611 18.2533C11.734 18.2689 11.7168 18.2979 11.7161 18.3296L11.7157 18.378C11.7157 20.0427 12.8025 21.5045 14.3487 21.9898C13.9415 22.0561 13.5189 22.0516 13.1036 21.9716C13.073 21.9658 13.0409 21.9764 13.0199 22.0003C12.999 22.0241 12.992 22.0574 13.0016 22.0875C13.4653 23.5484 14.7535 24.5728 16.2531 24.7005C15.0022 25.6255 13.5237 26.1129 11.9615 26.1129C11.6737 26.1129 11.3839 26.0956 11.1 26.0619C11.0594 26.0573 11.0192 26.0817 11.0052 26.1209C10.9912 26.1606 11.0061 26.2049 11.0412 26.2274C12.7317 27.3218 14.6864 27.9 16.6943 27.9C23.2619 27.9 27.1865 22.5148 27.1865 17.3087C27.1865 17.1637 27.1837 17.0195 27.178 16.8756C27.8865 16.3525 28.4947 15.7122 28.9851 14.971C29.007 14.9378 29.0046 14.8937 28.979 14.8628Z" fill="white"/>
</svg>
