<svg width="40" height="41" viewBox="0 0 40 41" fill="none" xmlns="http://www.w3.org/2000/svg">
<path fill-rule="evenodd" clip-rule="evenodd" d="M20 40.5C31.0457 40.5 40 31.5457 40 20.5C40 9.4543 31.0457 0.5 20 0.5C8.9543 0.5 0 9.4543 0 20.5C0 31.5457 8.9543 40.5 20 40.5Z" fill="#FF0000"/>
<path fill-rule="evenodd" clip-rule="evenodd" d="M20 13.3C17.102 13.3 13.3406 14.0293 13.3406 14.0293L13.3311 14.0402C12.0112 14.2522 11 15.3915 11 16.777V24.2217C11.0027 25.5899 11.9937 26.7523 13.3379 26.9652L13.3406 26.9693C13.3406 26.9693 17.102 27.7 20 27.7C22.898 27.7 26.6594 26.9693 26.6594 26.9693C28.0065 26.7555 28.9986 25.5914 29 24.223V16.777C28.998 15.4095 28.0068 14.2464 26.6621 14.0334C26.6594 14.0293 22.898 13.3 20 13.3ZM18.2 17.35L23.6 20.5L18.2 23.65V17.35Z" fill="white"/>
</svg>
